<?xml version="1.0" encoding="UTF-8" standalone="no"?>
<svg xmlns="http://www.w3.org/2000/svg" xmlns:xlink="http://www.w3.org/1999/xlink" style="isolation:isolate" viewBox="0 0 360 176">
	<style>
		path {
			fill: none;
			vector-effect: non-scaling-stroke;
			stroke-width: 12;
			stroke: #0a3b59;
			stroke-linejoin: miter;
			stroke-linecap: round;
			stroke-miterlimit: 3;
		}
	</style>
	<path d=" M 10.35 79.723 C 16.794 79.723 20.378 79.839 26.861 79.723 C 78.338 72.223 170.608 49.723 261.906 18.723" />
	<path d=" M 92.907 66.723 C 95.942 113.973 85.501 142.473 80.281 165.723" />
	<path d=" M 192.947 40.723 C 201.809 59.973 209.418 73.652 210.429 90.723 C 211.036 100.973 211.322 114.991 206.544 125.723 C 205.209 128.723 195.86 153.223 178.378 158.723 C 171.87 160.771 164.722 158.206 158.953 153.723 C 153.697 149.64 151.668 142.723 149.24 137.723" />
	<path d=" M 262.877 137.723 C 262.876 137.96 272.469 142.973 290.942 137.723 C 303.571 134.134 338.029 121.223 346.406 102.723 C 349.746 95.346 352.355 87.973 344.463 78.723 C 331.746 63.816 301.725 55.9 300.756 54.723 C 299.831 53.598 299.522 51.161 299.785 50.723 C 305.491 41.223 317.589 43.779 326.009 37.723 C 331.176 34.007 336.142 31.906 339.607 25.723 C 341.428 22.473 339.854 17.436 336.693 15.723 C 325.159 9.473 319.786 9.941 307.555 10.723 C 285.765 12.118 261.388 17.173 261.906 18.723 C 278.782 69.223 262.999 108.973 262.877 137.723 Z " />
</svg>